<svg width="32" height="32" viewBox="0 0 32 32" xmlns="http://www.w3.org/2000/svg">
    <path d="M17.742 13.863V6.889c1.329.079 2.642.328 3.907.743l1.85.739 1.485-3.714-1.858-.743a18.87 18.87 0 0 0-5.384-1.04V0h-3v2.912c-4.118.439-8.059 2.7-8.059 7.111 0 4.687 4.276 6.143 8.059 7.172v7.311a15.7 15.7 0 0 1-5.165-1.152l-1.789-.895L6 26.037l1.788.895a19.4 19.4 0 0 0 6.954 1.579V32h3v-3.515c4.941-.45 8.059-3.141 8.059-7.123 0-4.844-4.35-6.462-8.059-7.499zm-7.059-3.84c0-1.974 2.275-2.787 4.059-3.068v6.075c-2.735-.816-4.059-1.546-4.059-3.007zm7.059 14.443v-6.427c2.732.847 4.059 1.663 4.059 3.323 0 2.192-2.32 2.889-4.059 3.104z" fill-rule="nonzero" fill="#FFF"/>
</svg>
