<svg width="32" height="32" viewBox="0 0 32 32" xmlns="http://www.w3.org/2000/svg">
    <path d="M18.84 6.378A7.516 7.516 0 0 1 23.6 7.86l1.72 1.348 2.698-3.443-1.72-1.348a11.776 11.776 0 0 0-7.458-2.413c-6.73 0-10.519 4.366-11.83 9.622H3v2.625h3.565A18.852 18.852 0 0 0 6.473 16c0 .584.037 1.168.092 1.75H3v2.624h4.01c1.312 5.256 5.1 9.622 11.83 9.622 2.688.07 5.32-.781 7.457-2.413l1.72-1.348-2.698-3.443-1.72 1.35a7.516 7.516 0 0 1-4.76 1.48 7.148 7.148 0 0 1-7.302-5.248h8.083v-2.625h-8.668a14.511 14.511 0 0 1 0-3.498h8.668v-2.625h-8.083a7.148 7.148 0 0 1 7.303-5.248z" fill-rule="nonzero" fill="#FFF"/>
</svg>
