<svg xmlns="http://www.w3.org/2000/svg" width="24" height="23" viewBox="0 0 24 23">
    <g fill="none" fill-rule="evenodd">
        <g fill="#666" fill-rule="nonzero">
            <g>
                <g>
                    <path d="M16.536 12.407c-.392-.379-1.016-.374-1.402.012-.385.386-.39 1.01-.012 1.402l2.82 2.819-1.317 1.317-2.82-2.82c-.25-.26-.622-.364-.972-.272-.35.091-.622.364-.714.714-.091.35.013.72.273.972l2.556 2.557c-.72.3-1.501.43-2.28.377-.07.706-.348 1.376-.8 1.923.375.063.754.097 1.135.1 1.856.002 3.637-.734 4.949-2.047l2.107-2.135c.387-.392.384-1.023-.006-1.411l-3.517-3.508zM1.825 11.853c.297-.29.643-.528 1.022-.7-1.214-2.031-1.132-4.584.21-6.533 1.34-1.95 3.696-2.938 6.027-2.53l.433-.434c.423-.424.887-.805 1.384-1.14C7.633-.71 3.946.306 1.766 3.033c-2.18 2.727-2.358 6.547-.441 9.465.142-.233.31-.449.5-.644z" transform="translate(-250.000000, -10.000000) translate(227.000000, 10.000000) translate(23.000000, 0.000000)"/>
                    <path d="M3.4 14.154h6.67c1.443 0 2.611 1.169 2.611 2.61 0 1.442-1.168 2.61-2.61 2.61H3.4c-1.442 0-2.61-1.168-2.61-2.61 0-1.441 1.168-2.61 2.61-2.61z" transform="translate(-250.000000, -10.000000) translate(227.000000, 10.000000) translate(23.000000, 0.000000) translate(6.735678, 16.764344) rotate(45.000000) translate(-6.735678, -16.764344)"/>
                    <path d="M21.635 2.363c-3.151-3.15-8.26-3.15-11.412 0L5.588 6.998l.707.707c1.22 1.216 3.194 1.216 4.413 0l1.793-1.79 8.422 8.573.714-.713c3.15-3.152 3.15-8.26 0-11.412h-.002z" transform="translate(-250.000000, -10.000000) translate(227.000000, 10.000000) translate(23.000000, 0.000000)"/>
                </g>
            </g>
        </g>
    </g>
</svg>
