<svg xmlns="http://www.w3.org/2000/svg" width="20" height="20" viewBox="0 0 20 20">
    <g fill="none" fill-rule="evenodd">
        <g fill="#666">
            <g>
                <g>
                    <path d="M5 0H18.333V3.333H5z" transform="translate(-177 -10) translate(153 10) translate(24)"/>
                    <path fill-rule="nonzero" d="M19.167 5H2.5c-.46 0-.833-.374-.833-.833 0-.46.374-.834.833-.834h.833V1.667H2.5c-1.38 0-2.5 1.119-2.5 2.5v12.5C0 18.507 1.492 20 3.333 20h15.834c.46 0 .833-.373.833-.833V5.833c0-.46-.373-.833-.833-.833zM15 14.167c-.92 0-1.667-.746-1.667-1.667 0-.92.746-1.667 1.667-1.667.92 0 1.667.746 1.667 1.667 0 .92-.746 1.667-1.667 1.667z" transform="translate(-177 -10) translate(153 10) translate(24)"/>
                </g>
            </g>
        </g>
    </g>
</svg>
