<svg xmlns="http://www.w3.org/2000/svg" width="20" height="20" viewBox="0 0 20 20">
    <g fill="none" fill-rule="evenodd">
        <g fill="#666" fill-rule="nonzero">
            <g>
                <g>
                    <path d="M8.1 12H.9c-.497 0-.9-.384-.9-.857V.857C0 .384.403 0 .9 0h7.2c.497 0 .9.384.9.857v10.286c0 .473-.403.857-.9.857zM8.1 20H.9c-.497 0-.9-.336-.9-.75v-4.5c0-.414.403-.75.9-.75h7.2c.497 0 .9.336.9.75v4.5c0 .414-.403.75-.9.75zM19.1 6h-7.2c-.497 0-.9-.336-.9-.75V.75c0-.414.403-.75.9-.75h7.2c.497 0 .9.336.9.75v4.5c0 .414-.403.75-.9.75zM19.1 20h-7.2c-.497 0-.9-.384-.9-.857V8.857c0-.473.403-.857.9-.857h7.2c.497 0 .9.384.9.857v10.286c0 .473-.403.857-.9.857z" transform="translate(-29 -10) translate(5 10) translate(24)"/>
                </g>
            </g>
        </g>
    </g>
</svg>
