<?xml version="1.0" encoding="UTF-8"?>
<svg width="100px" height="100px" viewBox="0 0 100 100" version="1.1" xmlns="http://www.w3.org/2000/svg" xmlns:xlink="http://www.w3.org/1999/xlink">
    <!-- Generator: Sketch 63.1 (92452) - https://sketch.com -->
    <title>Icon</title>
    <desc>Created with Sketch.</desc>
    <g id="Page-1" stroke="none" stroke-width="1" fill="none" fill-rule="evenodd">
        <g id="Empty-Screen" transform="translate(-145.000000, -350.000000)">
            <g id="Icon" transform="translate(145.000000, 350.000000)">
                <circle id="Oval" fill="#000000" opacity="0.15" cx="50" cy="50" r="50"></circle>
                <g id="spaceship" transform="translate(32.000000, 32.000000)" fill="#FFFFFF" fill-rule="nonzero">
                    <path d="M16.425,4.05 C11.148867,3.30356461 5.94586115,5.8250213 3.2625,10.42875 C3.00185714,10.8705862 3.07311571,11.4327885 3.43575,11.795625 L6.37875,14.7375 C9.01969197,10.5703379 12.4290035,6.94341079 16.425,4.05 L16.425,4.05 Z" id="Path"></path>
                    <path d="M21.2535,29.608875 L24.204375,32.55975 C24.5673927,32.9229466 25.1302766,32.9942329 25.572375,32.733 C26.5317434,32.1706764 27.4168856,31.4903792 28.207125,30.708 C31.1574304,27.7793396 32.5419128,23.6238046 31.937625,19.510875 C29.044576,23.5202205 25.4195298,26.9463988 21.2535,29.608875 Z" id="Path"></path>
                    <path d="M35.6715,0.3375 C35.4460186,0.110014838 35.1354328,-0.0124237192 34.815375,-7.49617382e-16 C13.905,1.0935 6.1875,19.708875 6.111,19.89675 C5.94300572,20.314988 6.04084575,20.7931203 6.359625,21.11175 L14.889375,29.640375 C15.2097674,29.9611962 15.6914365,30.0583284 16.111125,29.88675 C16.297875,29.8125 34.8165,22.00275 36,1.19025 C36.0160789,0.872325635 35.8967157,0.562471801 35.6715,0.3375 Z M20.8125,18 C19.2591991,18 18,16.7408009 18,15.1875 C18,13.6341991 19.2591991,12.375 20.8125,12.375 C22.3658009,12.375 23.625,13.6341991 23.625,15.1875 C23.625,16.7408009 22.3658009,18 20.8125,18 Z" id="Shape"></path>
                    <path d="M8.8065,27.1935 C10.5632187,28.9507493 10.5632187,31.7992507 8.8065,33.5565 C7.04925,35.314875 0,36 0,36 C0,36 0.685125,28.95075 2.4435,27.1935 C4.20074933,25.4367813 7.04925067,25.4367813 8.8065,27.1935 Z" id="Path"></path>
                </g>
            </g>
        </g>
    </g>
</svg>