<svg xmlns="http://www.w3.org/2000/svg" width="20" height="22" viewBox="0 0 20 22">
    <g fill="none" fill-rule="evenodd">
        <g fill="#666" fill-rule="nonzero">
            <g>
                <g>
                    <path d="M19.684.244c-.201-.181-.47-.267-.738-.239L5.613 1.434c-.484.052-.851.46-.851.947v12.707c-.434-.207-.917-.326-1.429-.326C1.495 14.762 0 16.257 0 18.095s1.495 3.334 3.333 3.334 3.334-1.496 3.334-3.334V8l11.428-1.225v6.41c-.433-.208-.917-.327-1.428-.327-1.838 0-3.334 1.495-3.334 3.333 0 1.839 1.496 3.334 3.334 3.334S20 18.029 20 16.19V.952c0-.27-.115-.528-.316-.708z" transform="translate(-252 -9) translate(227 9) translate(25)"/>
                </g>
            </g>
        </g>
    </g>
</svg>
