<svg xmlns="http://www.w3.org/2000/svg" width="18" height="22" viewBox="0 0 18 22">
    <g fill="none" fill-rule="evenodd">
        <g fill-rule="nonzero" stroke="#FFF" stroke-width="2">
            <g>
                <path d="M8.579 1.176c-.09.085-.163.195-.163.322v1.543c-1.661.18-3.108.946-4.07 2.09-.772.92-1.228 2.082-1.228 3.367v5.231L1 16.73V17h16v-.271l-2.113-3V8.498c0-1.287-.456-2.45-1.227-3.368-.961-1.143-2.407-1.906-4.068-2.084V1.498c0-.124-.074-.236-.165-.322-.111-.104-.262-.176-.848 0z" transform="translate(-359 -233) matrix(-1 0 0 1 377 233)"/>
            </g>
        </g>
    </g>
</svg>
