<?xml version="1.0" encoding="UTF-8"?>
<svg width="144px" height="144px" viewBox="0 0 144 144" version="1.1" xmlns="http://www.w3.org/2000/svg" xmlns:xlink="http://www.w3.org/1999/xlink">
    <!-- Generator: Sketch 63.1 (92452) - https://sketch.com -->
    <title>Top Typen (Shazam)</title>
    <desc>Created with Sketch.</desc>
    <defs>
        <linearGradient x1="50%" y1="0%" x2="50%" y2="100%" id="linearGradient-1">
            <stop stop-color="#02AAFF" offset="0%"></stop>
            <stop stop-color="#2256FF" offset="100%"></stop>
        </linearGradient>
    </defs>
    <g id="Top-Typen-(Shazam)" stroke="none" stroke-width="1" fill="none" fill-rule="evenodd">
        <rect id="Rectangle" fill="url(#linearGradient-1)" x="0" y="0" width="144" height="144"></rect>
        <g id="Group-6-Copy" transform="translate(28.000000, 24.000000)" fill="#FFFFFF">
            <path d="M80.6805194,74.7219302 C74.1015121,81.9886639 62.3117461,93.2938763 61.8112994,93.7800104 C60.2632645,95.2589502 58.2705009,96 56.2842791,96 C54.1662064,96 52.0650522,95.1658535 50.4924292,93.5191139 C47.4321137,90.3082368 47.548174,85.2335072 50.7449647,82.1670711 C50.8611378,82.0506156 62.6214658,70.7780153 68.8099961,63.927452 C71.7371074,60.6905078 73.209235,56.5351223 72.9486914,52.2463546 C72.6713422,47.7026713 70.4851447,43.4371496 66.7836213,40.2373312 C61.9258934,36.0307143 52.3301073,35.0954592 46.3302737,40.4905542 C42.755864,43.6951121 38.4248628,48.4158484 38.3845969,48.4639202 C35.3804505,51.724336 30.321168,51.9371607 27.0627942,48.9423808 C23.8105111,45.9426358 23.5886543,40.8602328 26.5855822,37.5965445 C26.785445,37.3774005 31.4816584,32.2590001 35.6390767,28.5280227 C47.0353205,18.2835486 65.705016,18.0799771 77.2562324,28.0836411 C84.2504176,34.135604 88.3970081,42.3760728 88.9394125,51.2738608 C89.4677181,59.9135735 86.526621,68.2460106 80.6805194,74.7219302 M32.2487393,75.2934875 C24.8329472,75.2934875 17.427983,72.8359602 11.7429447,67.9119909 C4.75191759,61.8614951 0.605665447,53.6271198 0.0585239351,44.7233511 C-0.459066747,36.086798 2.46962352,27.7558279 8.32497386,21.2831808 C14.8978905,14.0101278 26.6893484,2.70322275 27.1865242,2.22476211 C30.3830894,-0.842915338 35.4483498,-0.720479067 38.5086653,2.48272462 C41.5626646,5.69044208 41.4541612,10.7716038 38.2561298,13.8345417 C38.1352195,13.949756 26.3840274,25.2207764 20.1906472,32.0666002 C17.2639871,35.316183 15.7887014,39.4620896 16.049245,43.7463435 C16.3294139,48.2946535 18.515837,52.5600623 22.2127361,55.7629275 C27.0767801,59.9789105 36.6694081,60.9001729 42.6720615,55.5161366 C46.2420724,52.3008585 50.5774724,47.5829433 50.6208963,47.5365642 C53.6130871,44.2696034 58.6842125,44.0600511 61.9366084,47.0644228 C65.1921625,50.0608954 65.4089438,55.146458 62.4139333,58.4101464 C62.2155367,58.6182316 57.5131199,63.7333595 53.3604388,67.4691891 C47.5744539,72.6759467 39.9062391,75.2934875 32.2487393,75.2934875" id="Fill-4"></path>
        </g>
    </g>
</svg>