<?xml version="1.0" encoding="UTF-8"?>
<svg width="144px" height="144px" viewBox="0 0 144 144" version="1.1" xmlns="http://www.w3.org/2000/svg" xmlns:xlink="http://www.w3.org/1999/xlink">
    <!-- Generator: Sketch 63.1 (92452) - https://sketch.com -->
    <title>Top Typen (Stream)</title>
    <desc>Created with Sketch.</desc>
    <defs>
        <linearGradient x1="50%" y1="0%" x2="50%" y2="100%" id="linearGradient-1">
            <stop stop-color="#1ED761" offset="0%"></stop>
            <stop stop-color="#00A04E" offset="100%"></stop>
        </linearGradient>
    </defs>
    <g id="Top-Typen-(Stream)" stroke="none" stroke-width="1" fill="none" fill-rule="evenodd">
        <rect id="Rectangle" fill="url(#linearGradient-1)" x="0" y="0" width="144" height="144"></rect>
        <g id="radio-copy" transform="translate(16.500000, 36.000000)" fill="#FFFFFF" fill-rule="nonzero">
            <path d="M81.5678343,59 L75,52.4292353 L78.2839172,49.1438529 C85.5299013,41.8946358 85.5299013,30.1007172 78.2839172,22.8561471 L75,19.5707647 L81.5678343,13 L84.8517515,16.2853824 C95.7160828,27.1545611 95.7160828,44.8454389 84.8517515,55.7146176 L81.5678343,59 Z" id="Path"></path>
            <path d="M94.4460631,72 L88,65.455387 L91.2230316,62.1830805 C105.441752,47.7469787 105.441752,24.2576498 91.2230316,9.82154796 L88,6.54461301 L94.4460631,0 L97.6690947,3.27230651 C115.443635,21.3185909 115.443635,50.6814091 97.6690947,68.7276935 L94.4460631,72 Z" id="Path"></path>
            <path d="M29.4321657,59 L26.1482485,55.7149495 C15.2839172,44.8468687 15.2839172,27.1577778 26.1482485,16.289697 L29.4321657,13 L36,19.570101 L32.7160828,22.8551515 C25.4700987,30.1036364 25.4700987,41.8963636 32.7160828,49.140202 L36,52.4252525 L29.4321657,59 Z" id="Path"></path>
            <path d="M16.5539369,72 L13.3309053,68.7276935 C-4.4436351,50.6814091 -4.4436351,21.3185909 13.3309053,3.27230651 L16.5539369,0 L23,6.54461301 L19.7769684,9.81691952 C5.55824786,24.2530213 5.55824786,47.7423502 19.7769684,62.178452 L23,65.4507585 L16.5539369,72 Z" id="Path"></path>
            <path d="M56,50 C48.2813333,50 42,43.7186667 42,36 C42,28.2813333 48.2813333,22 56,22 C63.7186667,22 70,28.2813333 70,36 C70,43.7186667 63.7186667,50 56,50 Z" id="Path"></path>
        </g>
    </g>
</svg>