<svg width="56" height="50" viewBox="0 0 56 50" xmlns="http://www.w3.org/2000/svg">
    <g fill="none" fill-rule="evenodd">
        <path d="M28.002 1c.563 0 1.103.146 1.567.41.45.255.83.624 1.088 1.085L54.65 44.887c.244.424.362.893.353 1.36-.01.467-.147.931-.408 1.348-.545.868-1.54 1.393-2.61 1.407H4.019c-1.07-.014-2.064-.539-2.61-1.407a2.631 2.631 0 0 1-.407-1.349c-.01-.466.108-.935.356-1.365L25.35 2.489a2.838 2.838 0 0 1 1.085-1.08A3.174 3.174 0 0 1 28.002 1z" stroke="#E19B00" stroke-width="2"/>
        <g fill="#E19B00">
            <path d="M28 42a3 3 0 1 1 0-6 3 3 0 0 1 0 6zM31 30.4c0 .884-.672 1.6-1.5 1.6h-3c-.828 0-1.5-.716-1.5-1.6V17.6c0-.884.672-1.6 1.5-1.6h3c.828 0 1.5.716 1.5 1.6v12.8z"/>
        </g>
    </g>
</svg>
