<svg width="213" height="30" viewBox="0 0 213 30" xmlns="http://www.w3.org/2000/svg">
    <g fill="#FFF" fill-rule="evenodd" opacity=".5">
        <rect y="9.545" width="3" height="10.909" rx="1.5"/>
        <rect x="6" y="1.364" width="3" height="27.273" rx="1.5"/>
        <rect x="90" y="1.364" width="3" height="27.273" rx="1.5"/>
        <rect x="12" y="6.818" width="3" height="16.364" rx="1.5"/>
        <rect x="96" y="4.091" width="3" height="21.818" rx="1.5"/>
        <rect x="18" y="2.727" width="3" height="24.545" rx="1.5"/>
        <rect x="102" y="4.091" width="3" height="21.818" rx="1.5"/>
        <rect x="24" width="3" height="30" rx="1.5"/>
        <rect x="108" width="3" height="30" rx="1.5"/>
        <rect x="30" y="9.545" width="3" height="10.909" rx="1.5"/>
        <rect x="114" y="9.545" width="3" height="10.909" rx="1.5"/>
        <rect x="36" y="4.091" width="3" height="21.818" rx="1.5"/>
        <rect x="120" y="4.091" width="3" height="21.818" rx="1.5"/>
        <rect x="42" y="8.182" width="3" height="13.636" rx="1.5"/>
        <rect x="126" y="8.182" width="3" height="13.636" rx="1.5"/>
        <rect x="48" y="12.273" width="3" height="5.455" rx="1.5"/>
        <rect x="186" y="9.273" width="3" height="11.45" rx="1.5"/>
        <rect x="132" y="12.273" width="3" height="5.455" rx="1.5"/>
        <rect x="54" y="5.455" width="3" height="19.091" rx="1.5"/>
        <rect x="192" y="5.455" width="3" height="19.091" rx="1.5"/>
        <rect x="138" y="5.455" width="3" height="19.091" rx="1.5"/>
        <rect x="60" y="6.818" width="3" height="16.364" rx="1.5"/>
        <rect x="198" y="6.818" width="3" height="16.364" rx="1.5"/>
        <rect x="144" y="5.455" width="3" height="19.091" rx="1.5"/>
        <rect x="66" y="2.727" width="3" height="24.545" rx="1.5"/>
        <rect x="204" y="2.727" width="3" height="24.545" rx="1.5"/>
        <rect x="150" y="2.727" width="3" height="24.545" rx="1.5"/>
        <rect x="72" y="9.545" width="3" height="10.909" rx="1.5"/>
        <rect x="210" y="9.545" width="3" height="10.909" rx="1.5"/>
        <rect x="156" y="4.091" width="3" height="21.818" rx="1.5"/>
        <rect x="78" y="12.273" width="3" height="5.455" rx="1.5"/>
        <rect x="162" y="9.545" width="3" height="10.909" rx="1.5"/>
        <rect x="84" y="4.091" width="3" height="21.818" rx="1.5"/>
        <rect x="168" y="6.818" width="3" height="16.364" rx="1.5"/>
        <rect x="174" y="6.818" width="3" height="16.364" rx="1.5"/>
        <rect x="180" y="2.727" width="3" height="24.545" rx="1.5"/>
    </g>
</svg>
