<?xml version="1.0" encoding="UTF-8"?>
<svg width="24px" height="24px" viewBox="0 0 24 24" version="1.1" xmlns="http://www.w3.org/2000/svg" xmlns:xlink="http://www.w3.org/1999/xlink">
    <!-- Generator: Sketch 63.1 (92452) - https://sketch.com -->
    <title>notification_icon</title>
    <desc>Created with Sketch.</desc>
    <g id="notification_icon" stroke="none" stroke-width="1" fill="none" fill-rule="evenodd">
        <g id="Group-2" transform="translate(2.000000, 0.000000)" fill-rule="nonzero" stroke="#FFFFFF" stroke-width="2">
            <g id="Notifications_Icon" transform="translate(10.000000, 12.000000) scale(-1, 1) translate(-10.000000, -12.000000) ">
                <path d="M12.0731701,21.7625943 L7.989909,21.8758006 C8.10115633,22.0589047 8.23785195,22.2256286 8.39479608,22.3712549 C8.81438227,22.7605832 9.37968096,23 10,23 C10.642627,23 11.2277887,22.7407123 11.6523511,22.3238692 C11.8197913,22.1594734 11.962391,21.970302 12.0731701,21.7625943 Z M10.0023068,1 C9.79054534,1 9.59410066,1.08933383 9.44929642,1.22360685 C9.30810895,1.35452615 9.20083605,1.53538736 9.2535702,1.7410514 L8.76904503,3.3085645 C7.09347933,3.61270778 5.64816425,4.4446299 4.67070444,5.62704479 C3.84128102,6.63038282 3.35294118,7.88616827 3.35294118,9.27058824 L3.35294118,14.9531826 L1,18.6363636 L19,18.2253967 L16.6519362,14.9530371 L16.6470838,9.03743462 C16.5929842,7.66785214 16.0602882,6.43550942 15.1959661,5.46232655 C14.1310214,4.26325285 12.5685288,3.4572986 10.7762179,3.24399916 L10.5317069,1.20060996 C10.3890446,1.07920228 10.2024424,1 10.0023068,1 Z" id="Combined-Shape"></path>
            </g>
        </g>
    </g>
</svg>