<?xml version="1.0" encoding="UTF-8"?>
<svg width="24px" height="24px" viewBox="0 0 24 24" version="1.1" xmlns="http://www.w3.org/2000/svg" xmlns:xlink="http://www.w3.org/1999/xlink">
    <!-- Generator: Sketch 63.1 (92452) - https://sketch.com -->
    <title>settings_icon</title>
    <desc>Created with Sketch.</desc>
    <g id="settings_icon" stroke="none" stroke-width="1" fill="none" fill-rule="evenodd">
        <g id="Group" transform="translate(1.000000, 1.000000)" fill-rule="nonzero" stroke="#FFFFFF" stroke-width="2">
            <g id="Settings_Icon">
                <path d="M19.1326667,12.3319167 C19.2076182,11.8918333 19.2468572,11.4464093 19.25,11 C19.2468572,10.5535907 19.2076182,10.1081667 19.1326667,9.66808333 L21.0576667,7.80816667 C21.3596702,7.51593064 21.4242747,7.05576502 21.2144167,6.69166667 L19.8394167,4.30833333 C19.626764,3.94575721 19.196366,3.77216714 18.7916667,3.88575 L16.225,4.61908333 C15.5300804,4.05306626 14.7477281,3.6038406 13.9085833,3.289 L13.2641667,0.694833333 C13.1623517,0.286615848 12.7957229,0 12.375,0 L9.625,0 C9.20427707,0 8.83764827,0.286615848 8.73583333,0.694833333 L8.08775,3.289 C7.24989406,3.60419768 6.46880469,4.05340921 5.775,4.61908333 L3.20833333,3.88575 C2.80365265,3.77250559 2.37345742,3.9460139 2.16058333,4.30833333 L0.785583333,6.69166667 C0.575240932,7.05598115 0.639870716,7.51670458 0.942333333,7.80908333 L2.86733333,9.669 C2.79243098,10.1087815 2.75319215,10.553897 2.75,11 C2.75314277,11.4464093 2.79238178,11.8918333 2.86733333,12.3319167 L0.942333333,14.1918333 C0.640329841,14.4840694 0.575725309,14.944235 0.785583333,15.3083333 L2.16058333,17.6916667 C2.32448955,17.9755609 2.62752075,18.1503194 2.95533333,18.15 C3.04053401,18.1496189 3.12530536,18.137905 3.20741667,18.1151667 L5.77408333,17.3818333 C6.4690029,17.9478504 7.25135524,18.3970761 8.0905,18.7119167 L8.73858333,21.3060833 C8.84050349,21.7129443 9.20556948,21.9987302 9.625,22 L12.375,22 C12.7957229,22 13.1623517,21.7133842 13.2641667,21.3051667 L13.91225,18.711 C14.7501059,18.3958023 15.5311953,17.9465908 16.225,17.3809167 L18.7916667,18.11425 C18.873778,18.1369884 18.9585493,18.1487022 19.04375,18.1490833 C19.3715626,18.1494027 19.6745938,17.9746443 19.8385,17.69075 L21.2135,15.3074167 C21.4238424,14.9431022 21.3592126,14.4823788 21.05675,14.19 L19.1326667,12.3319167 Z M11,14.6666667 C8.97495592,14.6666667 7.33333333,13.0250441 7.33333333,11 C7.33333333,8.97495592 8.97495592,7.33333333 11,7.33333333 C13.0250441,7.33333333 14.6666667,8.97495592 14.6666667,11 C14.6666667,11.9724605 14.2803583,12.9050915 13.5927249,13.5927249 C12.9050915,14.2803583 11.9724605,14.6666667 11,14.6666667 Z" id="Shape"></path>
            </g>
        </g>
    </g>
</svg>